<svg width="1105" height="154" viewBox="0 0 1105 154" fill="none" xmlns="http://www.w3.org/2000/svg">
<path d="M4.16 128L21.06 42.98H45.5C53.82 42.98 60.45 44.5833 65.39 47.79C70.4167 50.91 72.93 55.6767 72.93 62.09C72.93 65.6433 72.0633 68.85 70.33 71.71C68.6833 74.57 66.43 76.9967 63.57 78.99C60.7967 80.9833 57.6767 82.4133 54.21 83.28L54.08 83.8C58.6733 84.9267 62.3133 86.8333 65 89.52C67.7733 92.2067 69.16 95.8467 69.16 100.44C69.16 106.94 67.5567 112.227 64.35 116.3C61.1433 120.287 56.81 123.233 51.35 125.14C45.9767 127.047 39.91 128 33.15 128H4.16ZM27.95 78.6H38.35C45.2833 78.6 50.3967 77.3 53.69 74.7C56.9833 72.0133 58.63 68.5467 58.63 64.3C58.63 61.0067 57.33 58.45 54.73 56.63C52.13 54.81 48.1 53.9 42.64 53.9H33.02L27.95 78.6ZM20.28 117.08H33.15C40.17 117.08 45.6733 115.78 49.66 113.18C53.6467 110.58 55.64 106.55 55.64 101.09C55.64 97.19 54.21 94.1133 51.35 91.86C48.5767 89.6067 44.5033 88.48 39.13 88.48H26L20.28 117.08ZM81.3475 128L98.2475 42.98H146.998L144.658 54.81H109.818L105.268 77.69H134.778L132.438 89.52H103.058L97.5975 116.17H133.478L131.138 128H81.3475ZM175.422 80.55L169.052 93.42H190.762L189.852 80.55C189.592 76.2167 189.288 71.8833 188.942 67.55C188.682 63.2167 188.465 58.7533 188.292 54.16H187.772C185.692 58.7533 183.655 63.2167 181.662 67.55C179.755 71.7967 177.675 76.13 175.422 80.55ZM136.552 128L182.052 42.98H198.692L207.792 128H193.232L191.542 104.08H163.852L152.022 128H136.552ZM223.408 128L237.968 54.94H214.438L216.778 42.98H277.878L275.538 54.94H252.008L237.448 128H223.408ZM317.226 128L331.786 54.94H308.256L310.596 42.98H371.696L369.356 54.94H345.826L331.266 128H317.226ZM368.769 128L385.669 42.98H399.709L392.689 77.43H426.359L433.249 42.98H447.289L430.259 128H416.219L424.019 89.65H390.349L382.809 128H368.769ZM451.67 128L468.57 42.98H517.32L514.98 54.81H480.14L475.59 77.69H505.1L502.76 89.52H473.38L467.92 116.17H503.8L501.46 128H451.67ZM580.349 129.56C570.036 129.56 562.019 126.44 556.299 120.2C550.666 113.873 547.849 105.337 547.849 94.59C547.849 87.57 548.933 80.8533 551.099 74.44C553.353 68.0267 556.516 62.35 560.589 57.41C564.663 52.47 569.473 48.57 575.019 45.71C580.653 42.85 586.893 41.42 593.739 41.42C599.026 41.42 603.533 42.6333 607.259 45.06C610.986 47.4 613.976 50.52 616.229 54.42L606.609 61.83C604.963 59.23 603.056 57.1933 600.889 55.72C598.723 54.2467 596.079 53.51 592.959 53.51C588.366 53.51 584.163 54.68 580.349 57.02C576.623 59.2733 573.373 62.3067 570.599 66.12C567.913 69.9333 565.833 74.2233 564.359 78.99C562.886 83.7567 562.149 88.61 562.149 93.55C562.149 100.57 563.709 106.333 566.829 110.84C570.036 115.347 575.323 117.6 582.689 117.6C585.116 117.6 587.326 117.21 589.319 116.43C591.399 115.65 593.133 114.697 594.519 113.57L598.679 93.55H582.949L585.159 82.11H613.369L605.699 120.85C602.579 123.363 598.853 125.443 594.519 127.09C590.186 128.737 585.463 129.56 580.349 129.56ZM649.719 80.55L643.349 93.42H665.059L664.149 80.55C663.889 76.2167 663.585 71.8833 663.239 67.55C662.979 63.2167 662.762 58.7533 662.589 54.16H662.069C659.989 58.7533 657.952 63.2167 655.959 67.55C654.052 71.7967 651.972 76.13 649.719 80.55ZM610.849 128L656.349 42.98H672.989L682.089 128H667.529L665.839 104.08H638.149L626.319 128H610.849ZM691.357 128L708.257 42.98H723.857L730.617 85.49L733.087 101.87H733.607L742.057 85.49L765.457 42.98H780.927L763.897 128H750.637L759.087 87.18C759.954 83.1067 761.037 78.6433 762.337 73.79C763.637 68.85 764.851 64.43 765.977 60.53H765.587L755.187 79.77L732.697 119.68H726.197L719.177 79.77L716.447 60.53H715.927C715.494 64.5167 714.974 68.98 714.367 73.92C713.847 78.7733 713.197 83.1933 712.417 87.18L704.227 128H691.357ZM785.303 128L802.203 42.98H850.953L848.613 54.81H813.773L809.223 77.69H838.733L836.393 89.52H807.013L801.553 116.17H837.433L835.093 128H785.303Z" fill="#ECE8E1" fill-opacity="0.1"/>
<path d="M85.928 115V73.272H95.336V115H85.928ZM105.178 115V73.272H114.842L125.722 94.008L129.818 103.224H130.074C129.903 101.005 129.669 98.5307 129.37 95.8C129.071 93.0693 128.922 90.4667 128.922 87.992V73.272H137.882V115H128.218L117.338 94.2L113.242 85.112H112.986C113.199 87.416 113.434 89.8907 113.69 92.536C113.989 95.1813 114.138 97.7413 114.138 100.216V115H105.178ZM160.477 115.768C157.746 115.768 155.015 115.256 152.285 114.232C149.597 113.208 147.186 111.715 145.053 109.752L150.429 103.288C151.922 104.568 153.586 105.613 155.421 106.424C157.255 107.235 159.026 107.64 160.733 107.64C162.695 107.64 164.146 107.277 165.085 106.552C166.066 105.827 166.557 104.845 166.557 103.608C166.557 102.285 166.002 101.325 164.893 100.728C163.826 100.088 162.375 99.384 160.541 98.616L155.101 96.312C153.693 95.7147 152.349 94.9253 151.069 93.944C149.789 92.92 148.743 91.6613 147.933 90.168C147.122 88.6747 146.717 86.9253 146.717 84.92C146.717 82.616 147.335 80.5253 148.573 78.648C149.853 76.7707 151.602 75.2773 153.821 74.168C156.082 73.0587 158.663 72.504 161.565 72.504C163.954 72.504 166.343 72.9733 168.733 73.912C171.122 74.8507 173.213 76.216 175.005 78.008L170.205 83.96C168.839 82.8933 167.474 82.0827 166.109 81.528C164.743 80.9307 163.229 80.632 161.565 80.632C159.943 80.632 158.642 80.9733 157.661 81.656C156.722 82.296 156.253 83.2133 156.253 84.408C156.253 85.688 156.85 86.648 158.045 87.288C159.282 87.928 160.797 88.6107 162.589 89.336L167.965 91.512C170.482 92.536 172.487 93.944 173.981 95.736C175.474 97.528 176.221 99.896 176.221 102.84C176.221 105.144 175.602 107.277 174.365 109.24C173.127 111.203 171.335 112.781 168.989 113.976C166.642 115.171 163.805 115.768 160.477 115.768ZM190.181 115V81.208H178.725V73.272H211.109V81.208H199.653V115H190.181ZM217.616 115V73.272H232.656C235.6 73.272 238.288 73.6773 240.72 74.488C243.152 75.256 245.093 76.5787 246.544 78.456C247.994 80.3333 248.72 82.936 248.72 86.264C248.72 89.336 248.037 91.8747 246.672 93.88C245.349 95.8427 243.557 97.3147 241.296 98.296L250.768 115H240.208L232.208 99.96H227.024V115H217.616ZM227.024 92.472H231.888C234.362 92.472 236.24 91.96 237.52 90.936C238.842 89.8693 239.504 88.312 239.504 86.264C239.504 84.216 238.842 82.7867 237.52 81.976C236.24 81.1653 234.362 80.76 231.888 80.76H227.024V92.472ZM273.314 115.768C267.895 115.768 263.756 114.168 260.898 110.968C258.039 107.768 256.61 102.669 256.61 95.672V73.272H266.082V96.632C266.082 100.728 266.7 103.587 267.938 105.208C269.175 106.829 270.967 107.64 273.314 107.64C275.66 107.64 277.474 106.829 278.754 105.208C280.034 103.587 280.674 100.728 280.674 96.632V73.272H289.762V95.672C289.762 102.669 288.354 107.768 285.538 110.968C282.764 114.168 278.69 115.768 273.314 115.768ZM316.836 115.768C313.337 115.768 310.116 114.957 307.172 113.336C304.228 111.715 301.86 109.325 300.068 106.168C298.319 102.968 297.444 99.0427 297.444 94.392C297.444 89.784 298.34 85.8587 300.132 82.616C301.967 79.3307 304.377 76.8347 307.364 75.128C310.393 73.3787 313.657 72.504 317.156 72.504C319.844 72.504 322.255 73.0587 324.388 74.168C326.521 75.2347 328.292 76.4933 329.7 77.944L324.708 83.96C323.641 82.9787 322.511 82.1893 321.316 81.592C320.164 80.952 318.841 80.632 317.348 80.632C315.471 80.632 313.743 81.1653 312.164 82.232C310.628 83.2987 309.391 84.8347 308.452 86.84C307.556 88.8453 307.108 91.256 307.108 94.072C307.108 98.3387 308.025 101.667 309.86 104.056C311.695 106.445 314.148 107.64 317.22 107.64C318.927 107.64 320.441 107.256 321.764 106.488C323.129 105.72 324.324 104.803 325.348 103.736L330.34 109.624C326.841 113.72 322.34 115.768 316.836 115.768ZM344.056 115V81.208H332.6V73.272H364.984V81.208H353.528V115H344.056ZM371.491 115V73.272H380.899V115H371.491ZM407.701 115.768C403.946 115.768 400.639 114.893 397.781 113.144C394.965 111.395 392.746 108.899 391.125 105.656C389.546 102.371 388.757 98.4667 388.757 93.944C388.757 89.3787 389.546 85.5173 391.125 82.36C392.746 79.16 394.965 76.728 397.781 75.064C400.639 73.3573 403.946 72.504 407.701 72.504C411.455 72.504 414.741 73.3573 417.557 75.064C420.415 76.728 422.634 79.16 424.213 82.36C425.834 85.56 426.645 89.4213 426.645 93.944C426.645 98.4667 425.834 102.371 424.213 105.656C422.634 108.899 420.415 111.395 417.557 113.144C414.741 114.893 411.455 115.768 407.701 115.768ZM407.701 107.64C410.559 107.64 412.821 106.403 414.485 103.928C416.149 101.453 416.981 98.1253 416.981 93.944C416.981 89.7627 416.149 86.4987 414.485 84.152C412.821 81.8053 410.559 80.632 407.701 80.632C404.842 80.632 402.581 81.8053 400.917 84.152C399.253 86.4987 398.421 89.7627 398.421 93.944C398.421 98.1253 399.253 101.453 400.917 103.928C402.581 106.403 404.842 107.64 407.701 107.64ZM434.491 115V73.272H444.155L455.035 94.008L459.131 103.224H459.387C459.216 101.005 458.981 98.5307 458.683 95.8C458.384 93.0693 458.235 90.4667 458.235 87.992V73.272H467.194V115H457.531L446.651 94.2L442.555 85.112H442.299C442.512 87.416 442.747 89.8907 443.003 92.536C443.301 95.1813 443.451 97.7413 443.451 100.216V115H434.491ZM489.789 115.768C487.058 115.768 484.328 115.256 481.597 114.232C478.909 113.208 476.498 111.715 474.365 109.752L479.741 103.288C481.234 104.568 482.898 105.613 484.733 106.424C486.568 107.235 488.338 107.64 490.045 107.64C492.008 107.64 493.458 107.277 494.397 106.552C495.378 105.827 495.869 104.845 495.869 103.608C495.869 102.285 495.314 101.325 494.205 100.728C493.138 100.088 491.688 99.384 489.853 98.616L484.413 96.312C483.005 95.7147 481.661 94.9253 480.381 93.944C479.101 92.92 478.056 91.6613 477.245 90.168C476.434 88.6747 476.029 86.9253 476.029 84.92C476.029 82.616 476.648 80.5253 477.885 78.648C479.165 76.7707 480.914 75.2773 483.133 74.168C485.394 73.0587 487.976 72.504 490.877 72.504C493.266 72.504 495.656 72.9733 498.045 73.912C500.434 74.8507 502.525 76.216 504.317 78.008L499.517 83.96C498.152 82.8933 496.786 82.0827 495.421 81.528C494.056 80.9307 492.541 80.632 490.877 80.632C489.256 80.632 487.954 80.9733 486.973 81.656C486.034 82.296 485.565 83.2133 485.565 84.408C485.565 85.688 486.162 86.648 487.357 87.288C488.594 87.928 490.109 88.6107 491.901 89.336L497.277 91.512C499.794 92.536 501.8 93.944 503.293 95.736C504.786 97.528 505.533 99.896 505.533 102.84C505.533 105.144 504.914 107.277 503.677 109.24C502.44 111.203 500.648 112.781 498.301 113.976C495.954 115.171 493.117 115.768 489.789 115.768Z" fill="#ECE8E1"/>
</svg>
