<svg width="811" height="91" viewBox="0 0 811 91" fill="none" xmlns="http://www.w3.org/2000/svg">
<path d="M9.3 84.84H35.34C44.2067 84.84 48.64 80.36 48.64 71.4V61.74C48.64 52.8733 43.7867 48.44 34.08 48.44H9.3C8.36667 48.44 7.9 48.8133 7.9 49.56V83.58C7.9 84.42 8.36667 84.84 9.3 84.84ZM9.3 42.28H33.94C38.3267 42.28 41.6867 41.1133 44.02 38.78C46.4467 36.4467 47.66 33.1333 47.66 28.84V20.58C47.66 11.62 43.2267 7.13999 34.36 7.13999H9.3C8.36667 7.13999 7.9 7.56 7.9 8.4V41.02C7.9 41.86 8.36667 42.28 9.3 42.28ZM0.9 89.32V2.65999C0.9 1.54 1.36667 0.979999 2.3 0.979999H34.92C40.9867 0.979999 45.7933 2.70667 49.34 6.16C52.8867 9.61333 54.66 14.3733 54.66 20.44V28.98C54.66 37.4733 50.6467 42.9333 42.62 45.36C46.0733 45.5467 49.1067 47.1333 51.72 50.12C54.3333 53.1067 55.64 56.98 55.64 61.74V71.54C55.64 77.6067 53.8667 82.3667 50.32 85.82C46.7733 89.2733 41.9667 91 35.9 91H2.3C1.36667 91 0.9 90.44 0.9 89.32ZM104.21 91H74.5458C73.9058 91 73.5858 90.616 73.5858 89.848V30.424C73.5858 29.656 73.9058 29.272 74.5458 29.272H104.21C104.978 29.272 105.362 29.624 105.362 30.328V32.536C105.362 33.24 104.978 33.592 104.21 33.592H79.3458C78.7058 33.592 78.3858 33.88 78.3858 34.456V56.536C78.3858 57.112 78.7058 57.4 79.3458 57.4H101.522C102.226 57.4 102.578 57.752 102.578 58.456V60.664C102.578 61.368 102.226 61.72 101.522 61.72H79.3458C78.7058 61.72 78.3858 62.008 78.3858 62.584V85.816C78.3858 86.392 78.7058 86.68 79.3458 86.68H104.21C104.978 86.68 105.362 87.032 105.362 87.736V89.944C105.362 90.648 104.978 91 104.21 91ZM121.165 91H116.825C115.798 91 115.471 90.44 115.845 89.32L143.705 2.65999C143.985 1.54 144.638 0.979999 145.665 0.979999H152.245C153.178 0.979999 153.831 1.54 154.205 2.65999L182.065 89.32C182.345 90.44 182.018 91 181.085 91H176.605C175.671 91 175.065 90.44 174.785 89.32L167.225 66.92H130.545L122.985 89.32C122.611 90.44 122.005 91 121.165 91ZM148.605 8.68L132.505 60.62H165.405L149.165 8.68H148.605ZM217.793 91H213.733C212.706 91 212.193 90.44 212.193 89.32V8.53999C212.193 7.69999 211.726 7.27999 210.793 7.27999H190.493C189.373 7.27999 188.813 6.76666 188.813 5.74V2.52C188.813 1.49333 189.373 0.979999 190.493 0.979999H240.893C242.013 0.979999 242.573 1.49333 242.573 2.52V5.74C242.573 6.76666 242.013 7.27999 240.893 7.27999H220.593C219.66 7.27999 219.193 7.69999 219.193 8.53999V89.32C219.193 90.44 218.726 91 217.793 91ZM313.906 91H309.846C308.82 91 308.306 90.44 308.306 89.32V8.53999C308.306 7.69999 307.84 7.27999 306.906 7.27999H286.606C285.486 7.27999 284.926 6.76666 284.926 5.74V2.52C284.926 1.49333 285.486 0.979999 286.606 0.979999H337.006C338.126 0.979999 338.686 1.49333 338.686 2.52V5.74C338.686 6.76666 338.126 7.27999 337.006 7.27999H316.706C315.773 7.27999 315.306 7.69999 315.306 8.53999V89.32C315.306 90.44 314.84 91 313.906 91ZM358.555 91H354.495C353.562 91 353.095 90.44 353.095 89.32V2.65999C353.095 1.54 353.562 0.979999 354.495 0.979999H358.555C359.582 0.979999 360.095 1.54 360.095 2.65999V40.88C360.095 41.72 360.562 42.14 361.495 42.14H400.695C401.629 42.14 402.095 41.72 402.095 40.88V2.65999C402.095 1.54 402.562 0.979999 403.495 0.979999H407.555C408.582 0.979999 409.095 1.54 409.095 2.65999V89.32C409.095 90.44 408.582 91 407.555 91H403.495C402.562 91 402.095 90.44 402.095 89.32V49.7C402.095 48.86 401.629 48.44 400.695 48.44H361.495C360.562 48.44 360.095 48.86 360.095 49.7V89.32C360.095 90.44 359.582 91 358.555 91ZM459.823 91H430.159C429.519 91 429.199 90.616 429.199 89.848V30.424C429.199 29.656 429.519 29.272 430.159 29.272H459.823C460.591 29.272 460.975 29.624 460.975 30.328V32.536C460.975 33.24 460.591 33.592 459.823 33.592H434.959C434.319 33.592 433.999 33.88 433.999 34.456V56.536C433.999 57.112 434.319 57.4 434.959 57.4H457.135C457.839 57.4 458.191 57.752 458.191 58.456V60.664C458.191 61.368 457.839 61.72 457.135 61.72H434.959C434.319 61.72 433.999 62.008 433.999 62.584V85.816C433.999 86.392 434.319 86.68 434.959 86.68H459.823C460.591 86.68 460.975 87.032 460.975 87.736V89.944C460.975 90.648 460.591 91 459.823 91ZM549.942 91H534.682C528.615 91 523.809 89.2267 520.262 85.68C516.809 82.1333 515.082 77.28 515.082 71.12V20.86C515.082 14.7 516.809 9.84666 520.262 6.3C523.809 2.75333 528.615 0.979999 534.682 0.979999H549.942C556.009 0.979999 560.815 2.75333 564.362 6.3C567.909 9.84666 569.682 14.7 569.682 20.86V27.16C569.682 28.28 569.169 28.84 568.142 28.84H564.082C563.055 28.84 562.542 28.28 562.542 27.16V21.14C562.542 16.66 561.422 13.2533 559.182 10.92C556.942 8.49333 553.675 7.27999 549.382 7.27999H535.242C530.949 7.27999 527.682 8.49333 525.442 10.92C523.202 13.3467 522.082 16.7533 522.082 21.14V70.84C522.082 75.2267 523.202 78.6333 525.442 81.06C527.682 83.4867 530.949 84.7 535.242 84.7H549.382C553.675 84.7 556.942 83.5333 559.182 81.2C561.422 78.7733 562.542 75.32 562.542 70.84V52.36C562.542 51.52 562.122 51.1 561.282 51.1H545.182C544.155 51.1 543.642 50.5867 543.642 49.56V46.34C543.642 45.3133 544.155 44.8 545.182 44.8H567.022C568.795 44.8 569.682 45.7333 569.682 47.6V71.12C569.682 77.28 567.909 82.1333 564.362 85.68C560.815 89.2267 556.009 91 549.942 91ZM589.571 91H585.231C584.204 91 583.877 90.44 584.251 89.32L612.111 2.65999C612.391 1.54 613.044 0.979999 614.071 0.979999H620.651C621.584 0.979999 622.237 1.54 622.611 2.65999L650.471 89.32C650.751 90.44 650.424 91 649.491 91H645.011C644.077 91 643.471 90.44 643.191 89.32L635.631 66.92H598.951L591.391 89.32C591.017 90.44 590.411 91 589.571 91ZM617.011 8.68L600.911 60.62H633.811L617.571 8.68H617.011ZM731.279 0.979999H738.839C739.773 0.979999 740.239 1.54 740.239 2.65999V89.32C740.239 90.44 739.773 91 738.839 91H734.779C733.753 91 733.239 90.44 733.239 89.32V11.76H732.679L707.899 69.86C707.339 70.8867 706.639 71.4 705.799 71.4H701.179C700.246 71.4 699.593 70.8867 699.219 69.86L674.019 11.62H673.459V89.32C673.459 90.44 672.993 91 672.059 91H667.999C667.066 91 666.599 90.44 666.599 89.32V2.65999C666.599 1.54 667.066 0.979999 667.999 0.979999H675.559C676.213 0.979999 676.633 1.26 676.819 1.82L703.139 63.28H703.699L730.019 1.82C730.206 1.26 730.626 0.979999 731.279 0.979999ZM808.74 91H765.48C764.546 91 764.08 90.44 764.08 89.32V2.65999C764.08 1.54 764.546 0.979999 765.48 0.979999H808.74C809.86 0.979999 810.42 1.49333 810.42 2.52V5.74C810.42 6.76666 809.86 7.27999 808.74 7.27999H772.48C771.546 7.27999 771.08 7.69999 771.08 8.53999V40.74C771.08 41.58 771.546 42 772.48 42H804.82C805.846 42 806.36 42.5133 806.36 43.54V46.76C806.36 47.7867 805.846 48.3 804.82 48.3H772.48C771.546 48.3 771.08 48.72 771.08 49.56V83.44C771.08 84.28 771.546 84.7 772.48 84.7H808.74C809.86 84.7 810.42 85.2133 810.42 86.24V89.46C810.42 90.4867 809.86 91 808.74 91Z" fill="#ECE8E1"/>
</svg>
