<svg width="218" height="460" viewBox="0 0 218 460" fill="none" xmlns="http://www.w3.org/2000/svg">
<path d="M100.145 170.312L100.633 171.185L100.644 171.178L100.145 170.312ZM95.8246 174.92L94.9627 174.413L94.7878 174.71L94.8334 175.052L95.8246 174.92ZM99.4726 184.904L98.7532 185.599L98.7593 185.605L98.7655 185.611L99.4726 184.904ZM110.705 185.288L109.983 184.595L109.983 184.596L110.705 185.288ZM110.705 170.888L110.03 171.626L110.038 171.634L110.046 171.641L110.705 170.888ZM94.4806 195.08L93.9661 195.938L93.9777 195.944L94.4806 195.08ZM85.8406 185.288L84.9411 185.725L84.9449 185.733L84.9488 185.74L85.8406 185.288ZM86.0326 149.192L85.1335 148.754L85.1289 148.764L86.0326 149.192ZM95.1526 138.44L95.68 139.29L95.6839 139.287L95.1526 138.44ZM117.713 137.096L117.265 137.99L117.273 137.994L117.281 137.998L117.713 137.096ZM125.009 142.184L125.761 142.842L126.367 142.15L125.727 141.489L125.009 142.184ZM117.617 150.632L116.869 151.296L117.623 152.144L118.369 151.291L117.617 150.632ZM113.393 147.656L112.932 148.544L112.952 148.554L112.972 148.563L113.393 147.656ZM101.969 148.136L102.496 148.986L102.506 148.979L102.517 148.972L101.969 148.136ZM97.4566 154.088L96.531 153.709L96.5267 153.72L97.4566 154.088ZM95.5366 165.32L94.5374 165.279L94.4116 168.384L96.3247 165.936L95.5366 165.32ZM101.393 160.616L101.82 161.52L101.83 161.515L101.393 160.616ZM120.689 163.496L120.017 164.237L120.025 164.244L120.032 164.25L120.689 163.496ZM123.089 188.648L123.94 189.173L123.945 189.165L123.089 188.648ZM115.697 195.656L115.22 194.777L115.213 194.781L115.697 195.656ZM105.041 167.872C103.233 167.872 101.43 168.416 99.6449 169.446L100.644 171.178C102.187 170.288 103.648 169.872 105.041 169.872V167.872ZM99.656 169.439C97.8538 170.449 96.3002 172.139 94.9627 174.413L96.6866 175.427C97.9091 173.349 99.2354 171.967 100.633 171.185L99.656 169.439ZM94.8334 175.052C95.4803 179.904 96.7304 183.504 98.7532 185.599L100.192 184.209C98.6308 182.592 97.4489 179.536 96.8159 174.788L94.8334 175.052ZM98.7655 185.611C100.705 187.551 102.9 188.592 105.329 188.592V186.592C103.534 186.592 101.824 185.841 100.18 184.197L98.7655 185.611ZM105.329 188.592C107.715 188.592 109.768 187.711 111.427 185.98L109.983 184.596C108.698 185.937 107.166 186.592 105.329 186.592V188.592ZM111.426 185.981C113.218 184.114 114.009 181.279 114.009 177.704H112.009C112.009 181.041 111.263 183.262 109.983 184.595L111.426 185.981ZM114.009 177.704C114.009 174.378 113.214 171.755 111.363 170.135L110.046 171.641C111.267 172.709 112.009 174.63 112.009 177.704H114.009ZM111.379 170.15C109.694 168.611 107.553 167.872 105.041 167.872V169.872C107.137 169.872 108.771 170.477 110.03 171.626L111.379 170.15ZM105.617 197.152C101.897 197.152 98.3577 196.179 94.9835 194.216L93.9777 195.944C97.6436 198.077 101.528 199.152 105.617 199.152V197.152ZM94.9951 194.223C91.6671 192.226 88.905 189.119 86.7325 184.836L84.9488 185.74C87.2563 190.289 90.2542 193.71 93.9661 195.937L94.9951 194.223ZM86.7401 184.851C84.6523 180.553 83.5766 174.925 83.5766 167.912H81.5766C81.5766 175.107 82.677 181.063 84.9411 185.725L86.7401 184.851ZM83.5766 167.912C83.5766 160.387 84.7164 154.307 86.9364 149.62L85.1289 148.764C82.7409 153.805 81.5766 160.205 81.5766 167.912H83.5766ZM86.9317 149.63C89.2368 144.895 92.1626 141.473 95.68 139.29L94.6253 137.59C90.7187 140.015 87.5644 143.761 85.1335 148.754L86.9317 149.63ZM95.6839 139.287C99.3073 137.015 103.156 135.888 107.249 135.888V133.888C102.765 133.888 98.55 135.129 94.6213 137.593L95.6839 139.287ZM107.249 135.888C111.16 135.888 114.488 136.602 117.265 137.99L118.16 136.202C115.049 134.646 111.402 133.888 107.249 133.888V135.888ZM117.281 137.998C120.137 139.364 122.466 140.995 124.29 142.879L125.727 141.489C123.711 139.405 121.176 137.644 118.144 136.194L117.281 137.998ZM124.256 141.525L116.864 149.973L118.369 151.291L125.761 142.842L124.256 141.525ZM118.364 149.968C117.227 148.689 115.696 147.623 113.814 146.749L112.972 148.563C114.673 149.353 115.958 150.271 116.869 151.296L118.364 149.968ZM113.853 146.768C111.995 145.805 110.078 145.312 108.113 145.312V147.312C109.731 147.312 111.334 147.715 112.932 148.544L113.853 146.768ZM108.113 145.312C105.68 145.312 103.441 145.976 101.421 147.3L102.517 148.972C104.208 147.864 106.065 147.312 108.113 147.312V145.312ZM101.441 147.286C99.3481 148.586 97.7323 150.773 96.5311 153.709L98.3822 154.467C99.4849 151.771 100.877 149.99 102.496 148.986L101.441 147.286ZM96.5267 153.72C95.3802 156.62 94.7316 160.49 94.5374 165.279L96.5358 165.361C96.7257 160.678 97.3571 157.06 98.3866 154.456L96.5267 153.72ZM96.3247 165.936C97.8305 164.008 99.6598 162.54 101.82 161.52L100.966 159.712C98.5175 160.868 96.4428 162.536 94.7486 164.704L96.3247 165.936ZM101.83 161.515C104.115 160.404 106.074 159.888 107.729 159.888V157.888C105.671 157.888 103.406 158.524 100.955 159.717L101.83 161.515ZM107.729 159.888C112.767 159.888 116.836 161.356 120.017 164.237L121.36 162.755C117.757 159.492 113.186 157.888 107.729 157.888V159.888ZM120.032 164.25C123.192 167 124.873 171.406 124.873 177.704H126.873C126.873 171.074 125.098 166.008 121.345 162.742L120.032 164.25ZM124.873 177.704C124.873 181.778 123.979 185.241 122.233 188.131L123.945 189.165C125.91 185.911 126.873 182.078 126.873 177.704H124.873ZM122.238 188.123C120.472 190.984 118.137 193.197 115.22 194.777L116.173 196.535C119.401 194.787 121.993 192.328 123.94 189.173L122.238 188.123ZM115.213 194.781C112.364 196.357 109.173 197.152 105.617 197.152V199.152C109.484 199.152 113.013 198.283 116.181 196.531L115.213 194.781Z" fill="#ECE8E1" fill-opacity="0.75"/>
<path d="M94.5006 279.656L93.6464 279.136L92.7212 280.656H94.5006V279.656ZM107.365 279.656V280.656H108.365V279.656H107.365ZM107.557 262.952L106.559 262.879L106.558 262.891L106.558 262.902L107.557 262.952ZM107.941 256.136L108.94 256.169L108.975 255.136H107.941V256.136ZM107.557 256.136V255.136H106.917L106.649 255.717L107.557 256.136ZM105.157 261.224L106.058 261.658L105.157 261.224ZM102.565 266.408L103.419 266.928L103.437 266.899L103.452 266.868L102.565 266.408ZM107.365 305H106.365V306H107.365V305ZM107.365 290.408H108.365V289.408H107.365V290.408ZM80.9646 290.408H79.9646V291.408H80.9646V290.408ZM80.9646 280.712L80.1099 280.193L79.9646 280.432V280.712H80.9646ZM103.237 244.04V243.04H102.674L102.382 243.521L103.237 244.04ZM120.517 244.04H121.517V243.04H120.517V244.04ZM120.517 279.656H119.517V280.656H120.517V279.656ZM127.525 279.656H128.525V278.656H127.525V279.656ZM127.525 290.408V291.408H128.525V290.408H127.525ZM120.517 290.408V289.408H119.517V290.408H120.517ZM120.517 305V306H121.517V305H120.517ZM94.5006 280.656H107.365V278.656H94.5006V280.656ZM108.365 279.656V269.768H106.365V279.656H108.365ZM108.365 269.768C108.365 267.805 108.428 265.55 108.555 263.002L106.558 262.902C106.429 265.474 106.365 267.763 106.365 269.768H108.365ZM108.554 263.025C108.747 260.392 108.876 258.106 108.94 256.169L106.941 256.103C106.878 258.006 106.751 260.264 106.559 262.879L108.554 263.025ZM107.941 255.136H107.557V257.136H107.941V255.136ZM106.649 255.717C105.883 257.376 105.085 259.067 104.256 260.79L106.058 261.658C106.892 259.925 107.694 258.224 108.465 256.555L106.649 255.717ZM104.256 260.79C103.428 262.509 102.568 264.228 101.677 265.948L103.452 266.868C104.353 265.132 105.221 263.395 106.058 261.658L104.256 260.79ZM101.71 265.888L93.6464 279.136L95.3548 280.176L103.419 266.928L101.71 265.888ZM108.365 305V290.408H106.365V305H108.365ZM107.365 289.408H80.9646V291.408H107.365V289.408ZM81.9646 290.408V280.712H79.9646V290.408H81.9646ZM81.8193 281.231L104.091 244.559L102.382 243.521L80.1099 280.193L81.8193 281.231ZM103.237 245.04H120.517V243.04H103.237V245.04ZM119.517 244.04V279.656H121.517V244.04H119.517ZM120.517 280.656H127.525V278.656H120.517V280.656ZM126.525 279.656V290.408H128.525V279.656H126.525ZM127.525 289.408H120.517V291.408H127.525V289.408ZM119.517 290.408V305H121.517V290.408H119.517ZM120.517 304H107.365V306H120.517V304Z" fill="#ECE8E1" fill-opacity="0.75"/>
<path d="M105.645 382.312L106.133 383.185L106.144 383.178L105.645 382.312ZM101.325 386.92L100.463 386.413L100.288 386.71L100.333 387.052L101.325 386.92ZM104.973 396.904L104.253 397.599L104.259 397.605L104.266 397.611L104.973 396.904ZM116.205 397.288L115.483 396.595L115.483 396.596L116.205 397.288ZM116.205 382.888L115.53 383.626L115.538 383.634L115.546 383.641L116.205 382.888ZM99.9806 407.08L99.4661 407.938L99.4777 407.944L99.9806 407.08ZM91.3406 397.288L90.4411 397.725L90.4449 397.733L90.4488 397.74L91.3406 397.288ZM91.5326 361.192L90.6335 360.754L90.6289 360.764L91.5326 361.192ZM100.653 350.44L101.18 351.29L101.184 351.287L100.653 350.44ZM123.213 349.096L122.765 349.99L122.773 349.994L122.781 349.998L123.213 349.096ZM130.509 354.184L131.261 354.842L131.867 354.15L131.227 353.489L130.509 354.184ZM123.117 362.632L122.369 363.296L123.123 364.144L123.869 363.291L123.117 362.632ZM118.893 359.656L118.432 360.544L118.452 360.554L118.472 360.563L118.893 359.656ZM107.469 360.136L107.996 360.986L108.006 360.979L108.017 360.972L107.469 360.136ZM102.957 366.088L102.031 365.709L102.027 365.72L102.957 366.088ZM101.037 377.32L100.037 377.279L99.9116 380.384L101.825 377.936L101.037 377.32ZM106.893 372.616L107.32 373.52L107.33 373.515L106.893 372.616ZM126.189 375.496L125.517 376.237L125.525 376.244L125.532 376.25L126.189 375.496ZM128.589 400.648L129.44 401.173L129.445 401.165L128.589 400.648ZM121.197 407.656L120.72 406.777L120.713 406.781L121.197 407.656ZM110.541 379.872C108.733 379.872 106.93 380.416 105.145 381.446L106.144 383.178C107.687 382.288 109.148 381.872 110.541 381.872V379.872ZM105.156 381.439C103.354 382.449 101.8 384.139 100.463 386.413L102.187 387.427C103.409 385.349 104.735 383.967 106.133 383.185L105.156 381.439ZM100.333 387.052C100.98 391.904 102.23 395.504 104.253 397.599L105.692 396.209C104.131 394.592 102.949 391.536 102.316 386.788L100.333 387.052ZM104.266 397.611C106.205 399.551 108.4 400.592 110.829 400.592V398.592C109.034 398.592 107.324 397.841 105.68 396.197L104.266 397.611ZM110.829 400.592C113.215 400.592 115.268 399.711 116.927 397.98L115.483 396.596C114.198 397.937 112.666 398.592 110.829 398.592V400.592ZM116.926 397.981C118.718 396.114 119.509 393.279 119.509 389.704H117.509C117.509 393.041 116.763 395.262 115.483 396.595L116.926 397.981ZM119.509 389.704C119.509 386.378 118.714 383.755 116.863 382.135L115.546 383.641C116.767 384.709 117.509 386.63 117.509 389.704H119.509ZM116.879 382.15C115.194 380.611 113.053 379.872 110.541 379.872V381.872C112.637 381.872 114.271 382.477 115.53 383.626L116.879 382.15ZM111.117 409.152C107.397 409.152 103.858 408.179 100.484 406.216L99.4777 407.944C103.144 410.077 107.028 411.152 111.117 411.152V409.152ZM100.495 406.223C97.167 404.226 94.405 401.119 92.2325 396.836L90.4488 397.74C92.7563 402.289 95.7542 405.71 99.4661 407.937L100.495 406.223ZM92.2401 396.851C90.1523 392.553 89.0766 386.925 89.0766 379.912H87.0766C87.0766 387.107 88.177 393.063 90.4411 397.725L92.2401 396.851ZM89.0766 379.912C89.0766 372.387 90.2164 366.307 92.4364 361.62L90.6289 360.764C88.2409 365.805 87.0766 372.205 87.0766 379.912H89.0766ZM92.4317 361.63C94.7368 356.895 97.6626 353.473 101.18 351.29L100.125 349.59C96.2187 352.015 93.0644 355.761 90.6335 360.754L92.4317 361.63ZM101.184 351.287C104.807 349.015 108.656 347.888 112.749 347.888V345.888C108.265 345.888 104.05 347.129 100.121 349.593L101.184 351.287ZM112.749 347.888C116.66 347.888 119.988 348.602 122.765 349.99L123.66 348.202C120.549 346.646 116.902 345.888 112.749 345.888V347.888ZM122.781 349.998C125.637 351.364 127.966 352.995 129.79 354.879L131.227 353.489C129.211 351.405 126.676 349.644 123.644 348.194L122.781 349.998ZM129.756 353.525L122.364 361.973L123.869 363.291L131.261 354.842L129.756 353.525ZM123.864 361.968C122.727 360.689 121.196 359.623 119.314 358.749L118.472 360.563C120.173 361.353 121.458 362.271 122.369 363.296L123.864 361.968ZM119.353 358.768C117.495 357.805 115.578 357.312 113.613 357.312V359.312C115.231 359.312 116.834 359.715 118.432 360.544L119.353 358.768ZM113.613 357.312C111.18 357.312 108.941 357.976 106.921 359.3L108.017 360.972C109.708 359.864 111.565 359.312 113.613 359.312V357.312ZM106.941 359.286C104.848 360.586 103.232 362.773 102.031 365.709L103.882 366.467C104.985 363.771 106.377 361.99 107.996 360.986L106.941 359.286ZM102.027 365.72C100.88 368.62 100.232 372.49 100.037 377.279L102.036 377.361C102.226 372.678 102.857 369.06 103.887 366.456L102.027 365.72ZM101.825 377.936C103.33 376.008 105.16 374.54 107.32 373.52L106.466 371.712C104.017 372.868 101.943 374.536 100.249 376.704L101.825 377.936ZM107.33 373.515C109.615 372.404 111.574 371.888 113.229 371.888V369.888C111.171 369.888 108.906 370.524 106.455 371.717L107.33 373.515ZM113.229 371.888C118.267 371.888 122.336 373.356 125.517 376.237L126.86 374.755C123.257 371.492 118.686 369.888 113.229 369.888V371.888ZM125.532 376.25C128.692 379 130.373 383.406 130.373 389.704H132.373C132.373 383.074 130.598 378.008 126.845 374.742L125.532 376.25ZM130.373 389.704C130.373 393.778 129.479 397.241 127.733 400.131L129.445 401.165C131.41 397.911 132.373 394.078 132.373 389.704H130.373ZM127.738 400.123C125.972 402.984 123.637 405.197 120.72 406.777L121.673 408.535C124.901 406.787 127.493 404.328 129.44 401.173L127.738 400.123ZM120.713 406.781C117.864 408.357 114.673 409.152 111.117 409.152V411.152C114.984 411.152 118.513 410.283 121.681 408.531L120.713 406.781Z" fill="#ECE8E1" fill-opacity="0.75"/>
<path d="M99.5006 69.656L98.6464 69.1361L97.7212 70.656H99.5006V69.656ZM112.365 69.656V70.656H113.365V69.656H112.365ZM112.557 52.952L111.559 52.879L111.558 52.8905L111.558 52.9021L112.557 52.952ZM112.941 46.136L113.94 46.1693L113.975 45.136H112.941V46.136ZM112.557 46.136V45.136H111.917L111.649 45.7169L112.557 46.136ZM110.157 51.224L111.058 51.6578L110.157 51.224ZM107.565 56.408L108.419 56.9279L108.437 56.8987L108.452 56.8683L107.565 56.408ZM112.365 95H111.365V96H112.365V95ZM112.365 80.408H113.365V79.408H112.365V80.408ZM85.9646 80.408H84.9646V81.408H85.9646V80.408ZM85.9646 70.712L85.1099 70.1929L84.9646 70.4321V70.712H85.9646ZM108.237 34.04V33.04H107.674L107.382 33.5209L108.237 34.04ZM125.517 34.04H126.517V33.04H125.517V34.04ZM125.517 69.656H124.517V70.656H125.517V69.656ZM132.525 69.656H133.525V68.656H132.525V69.656ZM132.525 80.408V81.408H133.525V80.408H132.525ZM125.517 80.408V79.408H124.517V80.408H125.517ZM125.517 95V96H126.517V95H125.517ZM99.5006 70.656H112.365V68.656H99.5006V70.656ZM113.365 69.656V59.768H111.365V69.656H113.365ZM113.365 59.768C113.365 57.8046 113.428 55.5498 113.555 53.0019L111.558 52.9021C111.429 55.4742 111.365 57.7634 111.365 59.768H113.365ZM113.554 53.025C113.747 50.3922 113.876 48.1064 113.94 46.1693L111.941 46.1027C111.878 48.0056 111.751 50.2638 111.559 52.879L113.554 53.025ZM112.941 45.136H112.557V47.136H112.941V45.136ZM111.649 45.7169C110.883 47.3758 110.085 49.0669 109.256 50.7902L111.058 51.6578C111.892 49.9251 112.694 48.2242 113.465 46.5551L111.649 45.7169ZM109.256 50.7902C108.428 52.5092 107.568 54.2283 106.677 55.9477L108.452 56.8683C109.353 55.1317 110.221 53.3948 111.058 51.6578L109.256 50.7902ZM106.71 55.8881L98.6464 69.1361L100.355 70.1759L108.419 56.9279L106.71 55.8881ZM113.365 95V80.408H111.365V95H113.365ZM112.365 79.408H85.9646V81.408H112.365V79.408ZM86.9646 80.408V70.712H84.9646V80.408H86.9646ZM86.8193 71.2311L109.091 34.5591L107.382 33.5209L85.1099 70.1929L86.8193 71.2311ZM108.237 35.04H125.517V33.04H108.237V35.04ZM124.517 34.04V69.656H126.517V34.04H124.517ZM125.517 70.656H132.525V68.656H125.517V70.656ZM131.525 69.656V80.408H133.525V69.656H131.525ZM132.525 79.408H125.517V81.408H132.525V79.408ZM124.517 80.408V95H126.517V80.408H124.517ZM125.517 94H112.365V96H125.517V94Z" fill="#ECE8E1" fill-opacity="0.75"/>
<path d="M44.2095 397V373.528H52.2375C53.8695 373.528 55.3335 373.708 56.6295 374.068C57.9255 374.404 58.9575 374.992 59.7255 375.832C60.4935 376.672 60.8775 377.848 60.8775 379.36C60.8775 380.392 60.6015 381.412 60.0495 382.42C59.5215 383.404 58.7775 384.076 57.8175 384.436V384.58C59.0175 384.892 60.0135 385.504 60.8055 386.416C61.6215 387.304 62.0295 388.528 62.0295 390.088C62.0295 391.696 61.6215 393.004 60.8055 394.012C59.9895 395.02 58.8975 395.776 57.5295 396.28C56.1615 396.76 54.6255 397 52.9215 397H44.2095ZM49.5015 382.924H51.9855C53.2815 382.924 54.2175 382.672 54.7935 382.168C55.3935 381.664 55.6935 380.992 55.6935 380.152C55.6935 379.24 55.3935 378.592 54.7935 378.208C54.1935 377.824 53.2695 377.632 52.0215 377.632H49.5015V382.924ZM49.5015 392.896H52.4895C55.3935 392.896 56.8455 391.84 56.8455 389.728C56.8455 388.696 56.4855 387.964 55.7655 387.532C55.0455 387.076 53.9535 386.848 52.4895 386.848H49.5015V392.896ZM75.5464 397.432C73.4344 397.432 71.5744 396.94 69.9664 395.956C68.3824 394.972 67.1344 393.568 66.2224 391.744C65.3344 389.896 64.8904 387.7 64.8904 385.156C64.8904 382.588 65.3344 380.416 66.2224 378.64C67.1344 376.84 68.3824 375.472 69.9664 374.536C71.5744 373.576 73.4344 373.096 75.5464 373.096C77.6584 373.096 79.5064 373.576 81.0904 374.536C82.6984 375.472 83.9464 376.84 84.8344 378.64C85.7464 380.44 86.2024 382.612 86.2024 385.156C86.2024 387.7 85.7464 389.896 84.8344 391.744C83.9464 393.568 82.6984 394.972 81.0904 395.956C79.5064 396.94 77.6584 397.432 75.5464 397.432ZM75.5464 392.86C77.1544 392.86 78.4264 392.164 79.3624 390.772C80.2984 389.38 80.7664 387.508 80.7664 385.156C80.7664 382.804 80.2984 380.968 79.3624 379.648C78.4264 378.328 77.1544 377.668 75.5464 377.668C73.9384 377.668 72.6664 378.328 71.7304 379.648C70.7944 380.968 70.3264 382.804 70.3264 385.156C70.3264 387.508 70.7944 389.38 71.7304 390.772C72.6664 392.164 73.9384 392.86 75.5464 392.86ZM92.7038 397L88.3478 373.528H93.7838L95.4038 384.508C95.5478 385.732 95.7038 386.968 95.8718 388.216C96.0398 389.44 96.1958 390.676 96.3398 391.924H96.4838C96.7238 390.676 96.9518 389.44 97.1678 388.216C97.4078 386.968 97.6478 385.732 97.8878 384.508L100.408 373.528H104.908L107.428 384.508C107.668 385.684 107.896 386.896 108.112 388.144C108.352 389.392 108.592 390.652 108.832 391.924H108.976C109.144 390.652 109.3 389.404 109.444 388.18C109.612 386.932 109.78 385.708 109.948 384.508L111.568 373.528H116.644L112.468 397H105.808L103.504 386.344C103.312 385.432 103.132 384.52 102.964 383.608C102.82 382.672 102.688 381.772 102.568 380.908H102.424C102.28 381.772 102.124 382.672 101.956 383.608C101.812 384.52 101.644 385.432 101.452 386.344L99.2558 397H92.7038ZM119.901 397V373.528H125.193V392.536H134.481V397H119.901ZM138.534 397V373.528H153.222V377.992H143.826V382.708H151.818V387.136H143.826V392.536H153.582V397H138.534ZM158.256 397V373.528H166.716C168.372 373.528 169.884 373.756 171.252 374.212C172.62 374.644 173.712 375.388 174.528 376.444C175.344 377.5 175.752 378.964 175.752 380.836C175.752 382.564 175.368 383.992 174.6 385.12C173.856 386.224 172.848 387.052 171.576 387.604L176.904 397H170.964L166.464 388.54H163.548V397H158.256ZM163.548 384.328H166.284C167.676 384.328 168.732 384.04 169.452 383.464C170.196 382.864 170.568 381.988 170.568 380.836C170.568 379.684 170.196 378.88 169.452 378.424C168.732 377.968 167.676 377.74 166.284 377.74H163.548V384.328Z" fill="#18212A"/>
<path d="M8.7175 271.12L8.1415 273.28H13.1455L12.6055 271.12C12.2935 269.944 11.9695 268.696 11.6335 267.376C11.3215 266.056 11.0095 264.784 10.6975 263.56H10.5535C10.2655 264.808 9.9655 266.092 9.6535 267.412C9.3655 268.708 9.0535 269.944 8.7175 271.12ZM0.2215 283L7.5655 259.528H13.9375L21.2815 283H15.6655L14.2255 277.42H7.0615L5.6215 283H0.2215ZM23.8462 283V259.528H29.1382V278.536H38.4262V283H23.8462ZM42.479 283V259.528H47.771V278.536H57.059V283H42.479ZM61.1118 283V259.528H69.5718C71.2278 259.528 72.7398 259.756 74.1078 260.212C75.4758 260.644 76.5678 261.388 77.3838 262.444C78.1998 263.5 78.6078 264.964 78.6078 266.836C78.6078 268.564 78.2238 269.992 77.4558 271.12C76.7118 272.224 75.7038 273.052 74.4318 273.604L79.7598 283H73.8198L69.3198 274.54H66.4038V283H61.1118ZM66.4038 270.328H69.1398C70.5318 270.328 71.5878 270.04 72.3078 269.464C73.0518 268.864 73.4238 267.988 73.4238 266.836C73.4238 265.684 73.0518 264.88 72.3078 264.424C71.5878 263.968 70.5318 263.74 69.1398 263.74H66.4038V270.328ZM92.73 283.432C90.618 283.432 88.758 282.94 87.15 281.956C85.566 280.972 84.318 279.568 83.406 277.744C82.518 275.896 82.074 273.7 82.074 271.156C82.074 268.588 82.518 266.416 83.406 264.64C84.318 262.84 85.566 261.472 87.15 260.536C88.758 259.576 90.618 259.096 92.73 259.096C94.842 259.096 96.69 259.576 98.274 260.536C99.882 261.472 101.13 262.84 102.018 264.64C102.93 266.44 103.386 268.612 103.386 271.156C103.386 273.7 102.93 275.896 102.018 277.744C101.13 279.568 99.882 280.972 98.274 281.956C96.69 282.94 94.842 283.432 92.73 283.432ZM92.73 278.86C94.338 278.86 95.61 278.164 96.546 276.772C97.482 275.38 97.95 273.508 97.95 271.156C97.95 268.804 97.482 266.968 96.546 265.648C95.61 264.328 94.338 263.668 92.73 263.668C91.122 263.668 89.85 264.328 88.914 265.648C87.978 266.968 87.51 268.804 87.51 271.156C87.51 273.508 87.978 275.38 88.914 276.772C89.85 278.164 91.122 278.86 92.73 278.86ZM117.051 283.432C114.003 283.432 111.675 282.532 110.067 280.732C108.459 278.932 107.655 276.064 107.655 272.128V259.528H112.983V272.668C112.983 274.972 113.331 276.58 114.027 277.492C114.723 278.404 115.731 278.86 117.051 278.86C118.371 278.86 119.391 278.404 120.111 277.492C120.831 276.58 121.191 274.972 121.191 272.668V259.528H126.303V272.128C126.303 276.064 125.511 278.932 123.927 280.732C122.367 282.532 120.075 283.432 117.051 283.432ZM131.741 283V259.528H137.177L143.297 271.192L145.601 276.376H145.745C145.649 275.128 145.517 273.736 145.349 272.2C145.181 270.664 145.097 269.2 145.097 267.808V259.528H150.137V283H144.701L138.581 271.3L136.277 266.188H136.133C136.253 267.484 136.385 268.876 136.529 270.364C136.697 271.852 136.781 273.292 136.781 274.684V283H131.741ZM155.682 283V259.528H162.306C164.706 259.528 166.782 259.936 168.534 260.752C170.286 261.568 171.642 262.84 172.602 264.568C173.586 266.272 174.078 268.468 174.078 271.156C174.078 273.844 173.598 276.064 172.638 277.816C171.678 279.568 170.334 280.876 168.606 281.74C166.902 282.58 164.898 283 162.594 283H155.682ZM160.974 278.716H161.982C163.326 278.716 164.49 278.476 165.474 277.996C166.482 277.516 167.262 276.724 167.814 275.62C168.366 274.516 168.642 273.028 168.642 271.156C168.642 269.284 168.366 267.82 167.814 266.764C167.262 265.684 166.482 264.928 165.474 264.496C164.49 264.04 163.326 263.812 161.982 263.812H160.974V278.716ZM178.534 283V259.528H193.222V263.992H183.826V268.708H191.818V273.136H183.826V278.536H193.582V283H178.534ZM198.256 283V259.528H206.716C208.372 259.528 209.884 259.756 211.252 260.212C212.62 260.644 213.712 261.388 214.528 262.444C215.344 263.5 215.752 264.964 215.752 266.836C215.752 268.564 215.368 269.992 214.6 271.12C213.856 272.224 212.848 273.052 211.576 273.604L216.904 283H210.964L206.464 274.54H203.548V283H198.256ZM203.548 270.328H206.284C207.676 270.328 208.732 270.04 209.452 269.464C210.196 268.864 210.568 267.988 210.568 266.836C210.568 265.684 210.196 264.88 209.452 264.424C208.732 263.968 207.676 263.74 206.284 263.74H203.548V270.328Z" fill="#18212A"/>
<path d="M36.8267 178V154.528H44.8547C46.4867 154.528 47.9507 154.708 49.2467 155.068C50.5427 155.404 51.5747 155.992 52.3427 156.832C53.1107 157.672 53.4947 158.848 53.4947 160.36C53.4947 161.392 53.2187 162.412 52.6667 163.42C52.1387 164.404 51.3947 165.076 50.4347 165.436V165.58C51.6347 165.892 52.6307 166.504 53.4227 167.416C54.2387 168.304 54.6467 169.528 54.6467 171.088C54.6467 172.696 54.2387 174.004 53.4227 175.012C52.6067 176.02 51.5147 176.776 50.1467 177.28C48.7787 177.76 47.2427 178 45.5387 178H36.8267ZM42.1187 163.924H44.6027C45.8987 163.924 46.8347 163.672 47.4107 163.168C48.0107 162.664 48.3107 161.992 48.3107 161.152C48.3107 160.24 48.0107 159.592 47.4107 159.208C46.8107 158.824 45.8867 158.632 44.6387 158.632H42.1187V163.924ZM42.1187 173.896H45.1067C48.0107 173.896 49.4627 172.84 49.4627 170.728C49.4627 169.696 49.1027 168.964 48.3827 168.532C47.6627 168.076 46.5707 167.848 45.1067 167.848H42.1187V173.896ZM64.1316 166.12L63.5556 168.28H68.5596L68.0196 166.12C67.7076 164.944 67.3836 163.696 67.0476 162.376C66.7356 161.056 66.4236 159.784 66.1116 158.56H65.9676C65.6796 159.808 65.3796 161.092 65.0676 162.412C64.7796 163.708 64.4676 164.944 64.1316 166.12ZM55.6356 178L62.9796 154.528H69.3516L76.6956 178H71.0796L69.6396 172.42H62.4756L61.0356 178H55.6356ZM81.1956 178V158.992H74.7516V154.528H92.9676V158.992H86.5236V178H81.1956ZM102.877 178.432C101.341 178.432 99.8054 178.144 98.2694 177.568C96.7574 176.992 95.4014 176.152 94.2014 175.048L97.2254 171.412C98.0654 172.132 99.0014 172.72 100.033 173.176C101.065 173.632 102.061 173.86 103.021 173.86C104.125 173.86 104.941 173.656 105.469 173.248C106.021 172.84 106.297 172.288 106.297 171.592C106.297 170.848 105.985 170.308 105.361 169.972C104.761 169.612 103.945 169.216 102.913 168.784L99.8534 167.488C99.0614 167.152 98.3054 166.708 97.5854 166.156C96.8654 165.58 96.2774 164.872 95.8214 164.032C95.3654 163.192 95.1374 162.208 95.1374 161.08C95.1374 159.784 95.4854 158.608 96.1814 157.552C96.9014 156.496 97.8854 155.656 99.1334 155.032C100.405 154.408 101.857 154.096 103.489 154.096C104.833 154.096 106.177 154.36 107.521 154.888C108.865 155.416 110.041 156.184 111.049 157.192L108.349 160.54C107.581 159.94 106.813 159.484 106.045 159.172C105.277 158.836 104.425 158.668 103.489 158.668C102.577 158.668 101.845 158.86 101.293 159.244C100.765 159.604 100.501 160.12 100.501 160.792C100.501 161.512 100.837 162.052 101.509 162.412C102.205 162.772 103.057 163.156 104.065 163.564L107.089 164.788C108.505 165.364 109.633 166.156 110.473 167.164C111.313 168.172 111.733 169.504 111.733 171.16C111.733 172.456 111.385 173.656 110.689 174.76C109.993 175.864 108.985 176.752 107.665 177.424C106.345 178.096 104.749 178.432 102.877 178.432ZM115.717 178V154.528H121.513L125.293 164.968C125.533 165.64 125.761 166.348 125.977 167.092C126.193 167.836 126.421 168.568 126.661 169.288H126.805C127.045 168.568 127.261 167.836 127.453 167.092C127.669 166.348 127.897 165.64 128.137 164.968L131.845 154.528H137.605V178H132.781V169.396C132.781 168.628 132.817 167.776 132.889 166.84C132.985 165.88 133.081 164.92 133.177 163.96C133.297 163 133.393 162.148 133.465 161.404H133.321L131.413 166.984L128.065 175.948H125.149L121.801 166.984L119.929 161.404H119.785C119.881 162.148 119.977 163 120.073 163.96C120.169 164.92 120.253 165.88 120.325 166.84C120.421 167.776 120.469 168.628 120.469 169.396V178H115.717ZM148.647 166.12L148.071 168.28H153.075L152.535 166.12C152.223 164.944 151.899 163.696 151.563 162.376C151.251 161.056 150.939 159.784 150.627 158.56H150.483C150.195 159.808 149.895 161.092 149.583 162.412C149.295 163.708 148.983 164.944 148.647 166.12ZM140.151 178L147.495 154.528H153.867L161.211 178H155.595L154.155 172.42H146.991L145.551 178H140.151ZM163.776 178V154.528H169.212L175.332 166.192L177.636 171.376H177.78C177.684 170.128 177.552 168.736 177.384 167.2C177.216 165.664 177.132 164.2 177.132 162.808V154.528H182.172V178H176.736L170.616 166.3L168.312 161.188H168.168C168.288 162.484 168.42 163.876 168.564 165.364C168.732 166.852 168.816 168.292 168.816 169.684V178H163.776Z" fill="#18212A"/>
<path d="M49.8697 73V49.528H55.1617V59.14H55.3057L62.2897 49.528H68.1217L61.0297 58.888L69.4177 73H63.6217L57.8977 63.1L55.1617 66.7V73H49.8697ZM71.9829 73V49.528H86.6709V53.992H77.2749V58.708H85.2669V63.136H77.2749V68.536H87.0309V73H71.9829ZM91.7056 73V49.528H106.394V53.992H96.9976V58.708H104.99V63.136H96.9976V68.536H106.754V73H91.7056ZM111.428 73V49.528H119.492C121.22 49.528 122.78 49.768 124.172 50.248C125.588 50.704 126.716 51.484 127.556 52.588C128.396 53.692 128.816 55.192 128.816 57.088C128.816 58.912 128.396 60.412 127.556 61.588C126.716 62.764 125.6 63.64 124.208 64.216C122.816 64.768 121.292 65.044 119.636 65.044H116.72V73H111.428ZM116.72 60.832H119.312C122.192 60.832 123.632 59.584 123.632 57.088C123.632 55.864 123.248 55 122.48 54.496C121.712 53.992 120.608 53.74 119.168 53.74H116.72V60.832ZM132.874 73V49.528H147.562V53.992H138.166V58.708H146.158V63.136H138.166V68.536H147.922V73H132.874ZM152.596 73V49.528H161.056C162.712 49.528 164.224 49.756 165.592 50.212C166.96 50.644 168.052 51.388 168.868 52.444C169.684 53.5 170.092 54.964 170.092 56.836C170.092 58.564 169.708 59.992 168.94 61.12C168.196 62.224 167.188 63.052 165.916 63.604L171.244 73H165.304L160.804 64.54H157.888V73H152.596ZM157.888 60.328H160.624C162.016 60.328 163.072 60.04 163.792 59.464C164.536 58.864 164.908 57.988 164.908 56.836C164.908 55.684 164.536 54.88 163.792 54.424C163.072 53.968 162.016 53.74 160.624 53.74H157.888V60.328Z" fill="#18212A"/>
</svg>
