<svg width="943" height="154" viewBox="0 0 943 154" fill="none" xmlns="http://www.w3.org/2000/svg">
<path d="M4.16 128L21.06 42.98H45.5C53.82 42.98 60.45 44.5833 65.39 47.79C70.4167 50.91 72.93 55.6767 72.93 62.09C72.93 65.6433 72.0633 68.85 70.33 71.71C68.6833 74.57 66.43 76.9967 63.57 78.99C60.7967 80.9833 57.6767 82.4133 54.21 83.28L54.08 83.8C58.6733 84.9267 62.3133 86.8333 65 89.52C67.7733 92.2067 69.16 95.8467 69.16 100.44C69.16 106.94 67.5567 112.227 64.35 116.3C61.1433 120.287 56.81 123.233 51.35 125.14C45.9767 127.047 39.91 128 33.15 128H4.16ZM27.95 78.6H38.35C45.2833 78.6 50.3967 77.3 53.69 74.7C56.9833 72.0133 58.63 68.5467 58.63 64.3C58.63 61.0067 57.33 58.45 54.73 56.63C52.13 54.81 48.1 53.9 42.64 53.9H33.02L27.95 78.6ZM20.28 117.08H33.15C40.17 117.08 45.6733 115.78 49.66 113.18C53.6467 110.58 55.64 106.55 55.64 101.09C55.64 97.19 54.21 94.1133 51.35 91.86C48.5767 89.6067 44.5033 88.48 39.13 88.48H26L20.28 117.08ZM81.3475 128L98.2475 42.98H146.998L144.658 54.81H109.818L105.268 77.69H134.778L132.438 89.52H103.058L97.5975 116.17H133.478L131.138 128H81.3475ZM175.422 80.55L169.052 93.42H190.762L189.852 80.55C189.592 76.2167 189.288 71.8833 188.942 67.55C188.682 63.2167 188.465 58.7533 188.292 54.16H187.772C185.692 58.7533 183.655 63.2167 181.662 67.55C179.755 71.7967 177.675 76.13 175.422 80.55ZM136.552 128L182.052 42.98H198.692L207.792 128H193.232L191.542 104.08H163.852L152.022 128H136.552ZM223.408 128L237.968 54.94H214.438L216.778 42.98H277.878L275.538 54.94H252.008L237.448 128H223.408ZM317.226 128L331.786 54.94H308.256L310.596 42.98H371.696L369.356 54.94H345.826L331.266 128H317.226ZM368.769 128L385.669 42.98H399.709L392.689 77.43H426.359L433.249 42.98H447.289L430.259 128H416.219L424.019 89.65H390.349L382.809 128H368.769ZM451.67 128L468.57 42.98H517.32L514.98 54.81H480.14L475.59 77.69H505.1L502.76 89.52H473.38L467.92 116.17H503.8L501.46 128H451.67ZM580.349 129.56C570.036 129.56 562.019 126.44 556.299 120.2C550.666 113.873 547.849 105.337 547.849 94.59C547.849 87.57 548.933 80.8533 551.099 74.44C553.353 68.0267 556.516 62.35 560.589 57.41C564.663 52.47 569.473 48.57 575.019 45.71C580.653 42.85 586.893 41.42 593.739 41.42C599.026 41.42 603.533 42.6333 607.259 45.06C610.986 47.4 613.976 50.52 616.229 54.42L606.609 61.83C604.963 59.23 603.056 57.1933 600.889 55.72C598.723 54.2467 596.079 53.51 592.959 53.51C588.366 53.51 584.163 54.68 580.349 57.02C576.623 59.2733 573.373 62.3067 570.599 66.12C567.913 69.9333 565.833 74.2233 564.359 78.99C562.886 83.7567 562.149 88.61 562.149 93.55C562.149 100.57 563.709 106.333 566.829 110.84C570.036 115.347 575.323 117.6 582.689 117.6C585.116 117.6 587.326 117.21 589.319 116.43C591.399 115.65 593.133 114.697 594.519 113.57L598.679 93.55H582.949L585.159 82.11H613.369L605.699 120.85C602.579 123.363 598.853 125.443 594.519 127.09C590.186 128.737 585.463 129.56 580.349 129.56ZM649.719 80.55L643.349 93.42H665.059L664.149 80.55C663.889 76.2167 663.585 71.8833 663.239 67.55C662.979 63.2167 662.762 58.7533 662.589 54.16H662.069C659.989 58.7533 657.952 63.2167 655.959 67.55C654.052 71.7967 651.972 76.13 649.719 80.55ZM610.849 128L656.349 42.98H672.989L682.089 128H667.529L665.839 104.08H638.149L626.319 128H610.849ZM691.357 128L708.257 42.98H723.857L730.617 85.49L733.087 101.87H733.607L742.057 85.49L765.457 42.98H780.927L763.897 128H750.637L759.087 87.18C759.954 83.1067 761.037 78.6433 762.337 73.79C763.637 68.85 764.851 64.43 765.977 60.53H765.587L755.187 79.77L732.697 119.68H726.197L719.177 79.77L716.447 60.53H715.927C715.494 64.5167 714.974 68.98 714.367 73.92C713.847 78.7733 713.197 83.1933 712.417 87.18L704.227 128H691.357ZM785.303 128L802.203 42.98H850.953L848.613 54.81H813.773L809.223 77.69H838.733L836.393 89.52H807.013L801.553 116.17H837.433L835.093 128H785.303Z" fill="#ECE8E1" fill-opacity="0.1"/>
<path d="M25.928 128V86.272H35.336V128H25.928ZM45.178 128V86.272H54.842L65.722 107.008L69.818 116.224H70.074C69.9033 114.005 69.6687 111.531 69.37 108.8C69.0713 106.069 68.922 103.467 68.922 100.992V86.272H77.882V128H68.218L57.338 107.2L53.242 98.112H52.986C53.1993 100.416 53.434 102.891 53.69 105.536C53.9887 108.181 54.138 110.741 54.138 113.216V128H45.178ZM100.477 128.768C97.7458 128.768 95.0152 128.256 92.2845 127.232C89.5965 126.208 87.1858 124.715 85.0525 122.752L90.4285 116.288C91.9218 117.568 93.5858 118.613 95.4205 119.424C97.2552 120.235 99.0258 120.64 100.733 120.64C102.695 120.64 104.146 120.277 105.085 119.552C106.066 118.827 106.557 117.845 106.557 116.608C106.557 115.285 106.002 114.325 104.893 113.728C103.826 113.088 102.375 112.384 100.541 111.616L95.1005 109.312C93.6925 108.715 92.3485 107.925 91.0685 106.944C89.7885 105.92 88.7432 104.661 87.9325 103.168C87.1218 101.675 86.7165 99.9253 86.7165 97.92C86.7165 95.616 87.3352 93.5253 88.5725 91.648C89.8525 89.7707 91.6018 88.2773 93.8205 87.168C96.0818 86.0587 98.6632 85.504 101.565 85.504C103.954 85.504 106.343 85.9733 108.733 86.912C111.122 87.8507 113.213 89.216 115.005 91.008L110.205 96.96C108.839 95.8933 107.474 95.0827 106.109 94.528C104.743 93.9307 103.229 93.632 101.565 93.632C99.9432 93.632 98.6418 93.9733 97.6605 94.656C96.7218 95.296 96.2525 96.2133 96.2525 97.408C96.2525 98.688 96.8498 99.648 98.0445 100.288C99.2818 100.928 100.797 101.611 102.589 102.336L107.965 104.512C110.482 105.536 112.487 106.944 113.981 108.736C115.474 110.528 116.221 112.896 116.221 115.84C116.221 118.144 115.602 120.277 114.365 122.24C113.127 124.203 111.335 125.781 108.989 126.976C106.642 128.171 103.805 128.768 100.477 128.768ZM130.181 128V94.208H118.725V86.272H151.109V94.208H139.653V128H130.181ZM157.616 128V86.272H172.656C175.6 86.272 178.288 86.6773 180.72 87.488C183.152 88.256 185.093 89.5787 186.544 91.456C187.994 93.3333 188.72 95.936 188.72 99.264C188.72 102.336 188.037 104.875 186.672 106.88C185.349 108.843 183.557 110.315 181.296 111.296L190.768 128H180.208L172.208 112.96H167.024V128H157.616ZM167.024 105.472H171.888C174.362 105.472 176.24 104.96 177.52 103.936C178.842 102.869 179.504 101.312 179.504 99.264C179.504 97.216 178.842 95.7867 177.52 94.976C176.24 94.1653 174.362 93.76 171.888 93.76H167.024V105.472ZM213.314 128.768C207.895 128.768 203.756 127.168 200.898 123.968C198.039 120.768 196.61 115.669 196.61 108.672V86.272H206.082V109.632C206.082 113.728 206.7 116.587 207.938 118.208C209.175 119.829 210.967 120.64 213.314 120.64C215.66 120.64 217.474 119.829 218.754 118.208C220.034 116.587 220.674 113.728 220.674 109.632V86.272H229.762V108.672C229.762 115.669 228.354 120.768 225.538 123.968C222.764 127.168 218.69 128.768 213.314 128.768ZM256.836 128.768C253.337 128.768 250.116 127.957 247.172 126.336C244.228 124.715 241.86 122.325 240.068 119.168C238.319 115.968 237.444 112.043 237.444 107.392C237.444 102.784 238.34 98.8587 240.132 95.616C241.967 92.3307 244.377 89.8347 247.364 88.128C250.393 86.3787 253.657 85.504 257.156 85.504C259.844 85.504 262.255 86.0587 264.388 87.168C266.521 88.2347 268.292 89.4933 269.7 90.944L264.708 96.96C263.641 95.9787 262.511 95.1893 261.316 94.592C260.164 93.952 258.841 93.632 257.348 93.632C255.471 93.632 253.743 94.1653 252.164 95.232C250.628 96.2987 249.391 97.8347 248.452 99.84C247.556 101.845 247.108 104.256 247.108 107.072C247.108 111.339 248.025 114.667 249.86 117.056C251.695 119.445 254.148 120.64 257.22 120.64C258.927 120.64 260.441 120.256 261.764 119.488C263.129 118.72 264.324 117.803 265.348 116.736L270.34 122.624C266.841 126.72 262.34 128.768 256.836 128.768ZM284.056 128V94.208H272.6V86.272H304.984V94.208H293.528V128H284.056ZM311.491 128V86.272H320.899V128H311.491ZM347.701 128.768C343.946 128.768 340.639 127.893 337.781 126.144C334.965 124.395 332.746 121.899 331.125 118.656C329.546 115.371 328.757 111.467 328.757 106.944C328.757 102.379 329.546 98.5173 331.125 95.36C332.746 92.16 334.965 89.728 337.781 88.064C340.639 86.3573 343.946 85.504 347.701 85.504C351.455 85.504 354.741 86.3573 357.557 88.064C360.415 89.728 362.634 92.16 364.213 95.36C365.834 98.56 366.645 102.421 366.645 106.944C366.645 111.467 365.834 115.371 364.213 118.656C362.634 121.899 360.415 124.395 357.557 126.144C354.741 127.893 351.455 128.768 347.701 128.768ZM347.701 120.64C350.559 120.64 352.821 119.403 354.485 116.928C356.149 114.453 356.981 111.125 356.981 106.944C356.981 102.763 356.149 99.4987 354.485 97.152C352.821 94.8053 350.559 93.632 347.701 93.632C344.842 93.632 342.581 94.8053 340.917 97.152C339.253 99.4987 338.421 102.763 338.421 106.944C338.421 111.125 339.253 114.453 340.917 116.928C342.581 119.403 344.842 120.64 347.701 120.64ZM374.491 128V86.272H384.155L395.035 107.008L399.131 116.224H399.387C399.216 114.005 398.981 111.531 398.683 108.8C398.384 106.069 398.235 103.467 398.235 100.992V86.272H407.194V128H397.531L386.651 107.2L382.555 98.112H382.299C382.512 100.416 382.747 102.891 383.003 105.536C383.301 108.181 383.451 110.741 383.451 113.216V128H374.491ZM429.789 128.768C427.058 128.768 424.328 128.256 421.597 127.232C418.909 126.208 416.498 124.715 414.365 122.752L419.741 116.288C421.234 117.568 422.898 118.613 424.733 119.424C426.568 120.235 428.338 120.64 430.045 120.64C432.008 120.64 433.458 120.277 434.397 119.552C435.378 118.827 435.869 117.845 435.869 116.608C435.869 115.285 435.314 114.325 434.205 113.728C433.138 113.088 431.688 112.384 429.853 111.616L424.413 109.312C423.005 108.715 421.661 107.925 420.381 106.944C419.101 105.92 418.056 104.661 417.245 103.168C416.434 101.675 416.029 99.9253 416.029 97.92C416.029 95.616 416.648 93.5253 417.885 91.648C419.165 89.7707 420.914 88.2773 423.133 87.168C425.394 86.0587 427.976 85.504 430.877 85.504C433.266 85.504 435.656 85.9733 438.045 86.912C440.434 87.8507 442.525 89.216 444.317 91.008L439.517 96.96C438.152 95.8933 436.786 95.0827 435.421 94.528C434.056 93.9307 432.541 93.632 430.877 93.632C429.256 93.632 427.954 93.9733 426.973 94.656C426.034 95.296 425.565 96.2133 425.565 97.408C425.565 98.688 426.162 99.648 427.357 100.288C428.594 100.928 430.109 101.611 431.901 102.336L437.277 104.512C439.794 105.536 441.8 106.944 443.293 108.736C444.786 110.528 445.533 112.896 445.533 115.84C445.533 118.144 444.914 120.277 443.677 122.24C442.44 124.203 440.648 125.781 438.301 126.976C435.954 128.171 433.117 128.768 429.789 128.768Z" fill="black" fill-opacity="0.9"/>
</svg>
