<svg width="943" height="154" viewBox="0 0 943 154" fill="none" xmlns="http://www.w3.org/2000/svg">
<path d="M4.16 128L21.06 42.98H45.5C53.82 42.98 60.45 44.5833 65.39 47.79C70.4167 50.91 72.93 55.6767 72.93 62.09C72.93 65.6433 72.0633 68.85 70.33 71.71C68.6833 74.57 66.43 76.9967 63.57 78.99C60.7967 80.9833 57.6767 82.4133 54.21 83.28L54.08 83.8C58.6733 84.9267 62.3133 86.8333 65 89.52C67.7733 92.2067 69.16 95.8467 69.16 100.44C69.16 106.94 67.5567 112.227 64.35 116.3C61.1433 120.287 56.81 123.233 51.35 125.14C45.9767 127.047 39.91 128 33.15 128H4.16ZM27.95 78.6H38.35C45.2833 78.6 50.3967 77.3 53.69 74.7C56.9833 72.0133 58.63 68.5467 58.63 64.3C58.63 61.0067 57.33 58.45 54.73 56.63C52.13 54.81 48.1 53.9 42.64 53.9H33.02L27.95 78.6ZM20.28 117.08H33.15C40.17 117.08 45.6733 115.78 49.66 113.18C53.6467 110.58 55.64 106.55 55.64 101.09C55.64 97.19 54.21 94.1133 51.35 91.86C48.5767 89.6067 44.5033 88.48 39.13 88.48H26L20.28 117.08ZM81.3475 128L98.2475 42.98H146.998L144.658 54.81H109.818L105.268 77.69H134.778L132.438 89.52H103.058L97.5975 116.17H133.478L131.138 128H81.3475ZM175.422 80.55L169.052 93.42H190.762L189.852 80.55C189.592 76.2167 189.288 71.8833 188.942 67.55C188.682 63.2167 188.465 58.7533 188.292 54.16H187.772C185.692 58.7533 183.655 63.2167 181.662 67.55C179.755 71.7967 177.675 76.13 175.422 80.55ZM136.552 128L182.052 42.98H198.692L207.792 128H193.232L191.542 104.08H163.852L152.022 128H136.552ZM223.408 128L237.968 54.94H214.438L216.778 42.98H277.878L275.538 54.94H252.008L237.448 128H223.408ZM317.226 128L331.786 54.94H308.256L310.596 42.98H371.696L369.356 54.94H345.826L331.266 128H317.226ZM368.769 128L385.669 42.98H399.709L392.689 77.43H426.359L433.249 42.98H447.289L430.259 128H416.219L424.019 89.65H390.349L382.809 128H368.769ZM451.67 128L468.57 42.98H517.32L514.98 54.81H480.14L475.59 77.69H505.1L502.76 89.52H473.38L467.92 116.17H503.8L501.46 128H451.67ZM580.349 129.56C570.036 129.56 562.019 126.44 556.299 120.2C550.666 113.873 547.849 105.337 547.849 94.59C547.849 87.57 548.933 80.8533 551.099 74.44C553.353 68.0267 556.516 62.35 560.589 57.41C564.663 52.47 569.473 48.57 575.019 45.71C580.653 42.85 586.893 41.42 593.739 41.42C599.026 41.42 603.533 42.6333 607.259 45.06C610.986 47.4 613.976 50.52 616.229 54.42L606.609 61.83C604.963 59.23 603.056 57.1933 600.889 55.72C598.723 54.2467 596.079 53.51 592.959 53.51C588.366 53.51 584.163 54.68 580.349 57.02C576.623 59.2733 573.373 62.3067 570.599 66.12C567.913 69.9333 565.833 74.2233 564.359 78.99C562.886 83.7567 562.149 88.61 562.149 93.55C562.149 100.57 563.709 106.333 566.829 110.84C570.036 115.347 575.323 117.6 582.689 117.6C585.116 117.6 587.326 117.21 589.319 116.43C591.399 115.65 593.133 114.697 594.519 113.57L598.679 93.55H582.949L585.159 82.11H613.369L605.699 120.85C602.579 123.363 598.853 125.443 594.519 127.09C590.186 128.737 585.463 129.56 580.349 129.56ZM649.719 80.55L643.349 93.42H665.059L664.149 80.55C663.889 76.2167 663.585 71.8833 663.239 67.55C662.979 63.2167 662.762 58.7533 662.589 54.16H662.069C659.989 58.7533 657.952 63.2167 655.959 67.55C654.052 71.7967 651.972 76.13 649.719 80.55ZM610.849 128L656.349 42.98H672.989L682.089 128H667.529L665.839 104.08H638.149L626.319 128H610.849ZM691.357 128L708.257 42.98H723.857L730.617 85.49L733.087 101.87H733.607L742.057 85.49L765.457 42.98H780.927L763.897 128H750.637L759.087 87.18C759.954 83.1067 761.037 78.6433 762.337 73.79C763.637 68.85 764.851 64.43 765.977 60.53H765.587L755.187 79.77L732.697 119.68H726.197L719.177 79.77L716.447 60.53H715.927C715.494 64.5167 714.974 68.98 714.367 73.92C713.847 78.7733 713.197 83.1933 712.417 87.18L704.227 128H691.357ZM785.303 128L802.203 42.98H850.953L848.613 54.81H813.773L809.223 77.69H838.733L836.393 89.52H807.013L801.553 116.17H837.433L835.093 128H785.303Z" fill="#ECE8E1" fill-opacity="0.1"/>
<path d="M25.928 128V86.272H36.232L42.952 104.832C43.3787 106.027 43.784 107.285 44.168 108.608C44.552 109.931 44.9573 111.232 45.384 112.512H45.64C46.0667 111.232 46.4507 109.931 46.792 108.608C47.176 107.285 47.5813 106.027 48.008 104.832L54.6 86.272H64.84V128H56.264V112.704C56.264 111.339 56.328 109.824 56.456 108.16C56.6267 106.453 56.7973 104.747 56.968 103.04C57.1813 101.333 57.352 99.8187 57.48 98.496H57.224L53.832 108.416L47.88 124.352H42.696L36.744 108.416L33.416 98.496H33.16C33.3307 99.8187 33.5013 101.333 33.672 103.04C33.8427 104.747 33.992 106.453 34.12 108.16C34.2907 109.824 34.376 111.339 34.376 112.704V128H25.928ZM84.47 106.88L83.446 110.72H92.342L91.382 106.88C90.8273 104.789 90.2513 102.571 89.654 100.224C89.0993 97.8773 88.5447 95.616 87.99 93.44H87.734C87.222 95.6587 86.6887 97.9413 86.134 100.288C85.622 102.592 85.0673 104.789 84.47 106.88ZM69.366 128L82.422 86.272H93.75L106.806 128H96.822L94.262 118.08H81.526L78.966 128H69.366ZM114.806 128V94.208H103.35V86.272H135.734V94.208H124.278V128H114.806ZM157.836 128.768C154.337 128.768 151.116 127.957 148.172 126.336C145.228 124.715 142.86 122.325 141.068 119.168C139.319 115.968 138.444 112.043 138.444 107.392C138.444 102.784 139.34 98.8587 141.132 95.616C142.967 92.3307 145.377 89.8347 148.364 88.128C151.393 86.3787 154.657 85.504 158.156 85.504C160.844 85.504 163.255 86.0587 165.388 87.168C167.521 88.2347 169.292 89.4933 170.7 90.944L165.708 96.96C164.641 95.9787 163.511 95.1893 162.316 94.592C161.164 93.952 159.841 93.632 158.348 93.632C156.471 93.632 154.743 94.1653 153.164 95.232C151.628 96.2987 150.391 97.8347 149.452 99.84C148.556 101.845 148.108 104.256 148.108 107.072C148.108 111.339 149.025 114.667 150.86 117.056C152.695 119.445 155.148 120.64 158.22 120.64C159.927 120.64 161.441 120.256 162.764 119.488C164.129 118.72 165.324 117.803 166.348 116.736L171.34 122.624C167.841 126.72 163.34 128.768 157.836 128.768ZM177.678 128V86.272H187.086V102.336H201.486V86.272H210.958V128H201.486V110.592H187.086V128H177.678ZM233.616 128V86.272H245.392C249.658 86.272 253.349 86.9973 256.464 88.448C259.578 89.8987 261.989 92.16 263.696 95.232C265.445 98.2613 266.319 102.165 266.319 106.944C266.319 111.723 265.466 115.669 263.76 118.784C262.053 121.899 259.664 124.224 256.592 125.76C253.562 127.253 250 128 245.904 128H233.616ZM243.024 120.384H244.816C247.205 120.384 249.274 119.957 251.024 119.104C252.816 118.251 254.202 116.843 255.184 114.88C256.165 112.917 256.656 110.272 256.656 106.944C256.656 103.616 256.165 101.013 255.184 99.136C254.202 97.216 252.816 95.872 251.024 95.104C249.274 94.2933 247.205 93.888 244.816 93.888H243.024V120.384ZM274.241 128V86.272H283.649V128H274.241ZM303.283 106.88L302.259 110.72H311.155L310.195 106.88C309.64 104.789 309.064 102.571 308.467 100.224C307.912 97.8773 307.357 95.616 306.803 93.44H306.547C306.035 95.6587 305.501 97.9413 304.947 100.288C304.435 102.592 303.88 104.789 303.283 106.88ZM288.178 128L301.235 86.272H312.563L325.619 128H315.635L313.075 118.08H300.339L297.779 128H288.178ZM347.985 128.768C344.188 128.768 340.732 127.957 337.617 126.336C334.545 124.715 332.092 122.325 330.257 119.168C328.465 115.968 327.569 112.043 327.569 107.392C327.569 102.784 328.486 98.8587 330.321 95.616C332.198 92.3307 334.673 89.8347 337.745 88.128C340.817 86.3787 344.209 85.504 347.921 85.504C350.95 85.504 353.553 86.0587 355.729 87.168C357.905 88.2773 359.676 89.536 361.041 90.944L356.113 96.96C355.046 96.0213 353.916 95.232 352.721 94.592C351.526 93.952 350.033 93.632 348.241 93.632C344.998 93.632 342.353 94.8267 340.305 97.216C338.257 99.6053 337.233 102.891 337.233 107.072C337.233 111.339 338.214 114.667 340.177 117.056C342.14 119.445 345.062 120.64 348.945 120.64C349.798 120.64 350.63 120.533 351.441 120.32C352.252 120.107 352.913 119.787 353.425 119.36V112.192H346.513V104.512H361.745V123.712C360.294 125.12 358.353 126.315 355.921 127.296C353.532 128.277 350.886 128.768 347.985 128.768ZM370.366 128V86.272H385.406C388.35 86.272 391.038 86.6773 393.47 87.488C395.902 88.256 397.843 89.5787 399.294 91.456C400.744 93.3333 401.47 95.936 401.47 99.264C401.47 102.336 400.787 104.875 399.422 106.88C398.099 108.843 396.307 110.315 394.046 111.296L403.518 128H392.958L384.958 112.96H379.774V128H370.366ZM379.774 105.472H384.638C387.112 105.472 388.99 104.96 390.27 103.936C391.592 102.869 392.254 101.312 392.254 99.264C392.254 97.216 391.592 95.7867 390.27 94.976C388.99 94.1653 387.112 93.76 384.638 93.76H379.774V105.472ZM418.908 106.88L417.884 110.72H426.78L425.82 106.88C425.265 104.789 424.689 102.571 424.092 100.224C423.537 97.8773 422.982 95.616 422.428 93.44H422.172C421.66 95.6587 421.126 97.9413 420.572 100.288C420.06 102.592 419.505 104.789 418.908 106.88ZM403.803 128L416.86 86.272H428.188L441.244 128H431.26L428.7 118.08H415.964L413.404 128H403.803ZM445.803 128V86.272H456.107L462.827 104.832C463.254 106.027 463.659 107.285 464.043 108.608C464.427 109.931 464.832 111.232 465.259 112.512H465.515C465.942 111.232 466.326 109.931 466.667 108.608C467.051 107.285 467.456 106.027 467.883 104.832L474.475 86.272H484.715V128H476.139V112.704C476.139 111.339 476.203 109.824 476.331 108.16C476.502 106.453 476.672 104.747 476.843 103.04C477.056 101.333 477.227 99.8187 477.355 98.496H477.099L473.707 108.416L467.755 124.352H462.571L456.619 108.416L453.291 98.496H453.035C453.206 99.8187 453.376 101.333 453.547 103.04C453.718 104.747 453.867 106.453 453.995 108.16C454.166 109.824 454.251 111.339 454.251 112.704V128H445.803Z" fill="#ECE8E1" fill-opacity="0.9"/>
</svg>
